<svg width="39" height="39" viewBox="0 0 39 39" fill="none" xmlns="http://www.w3.org/2000/svg">
<path d="M14.4274 11.7489L11.749 14.4273L17.1058 19.7842L11.749 25.141L14.4274 27.8195L19.7842 22.4626L25.1411 27.8195L27.8195 25.141L22.4627 19.7842L27.8195 14.4273L25.1411 11.7489L19.7842 17.1058L14.4274 11.7489ZM6.39212 6.39206C-1.00033 13.7845 -1.00033 25.7838 6.39212 33.1763C13.7846 40.5687 25.7839 40.5687 33.1764 33.1763C40.5688 25.7839 40.5688 13.7845 33.1764 6.39206C25.7839 -1.00039 13.7846 -1.00039 6.39212 6.39206ZM30.4979 30.4979C24.592 36.4038 14.9765 36.4038 9.07054 30.4979C3.16462 24.592 3.16462 14.9764 9.07054 9.07048C14.9765 3.16456 24.592 3.16456 30.4979 9.07048C36.4039 14.9764 36.4039 24.592 30.4979 30.4979Z" fill="white"/>
</svg>
