<svg width="22" height="21" viewBox="0 0 22 21" fill="none" xmlns="http://www.w3.org/2000/svg">
<path d="M16.5104 20.4167L13.6458 17.2917L14.8542 16.0625L16.5104 17.7188L20.25 13.9792L21.4583 15.4479L16.5104 20.4167ZM18.8542 0.625C18.9923 0.625 19.1248 0.679873 19.2224 0.777549C19.3201 0.875224 19.375 1.0077 19.375 1.14583V11.3958C18.7187 11.1667 18.0208 11.0417 17.2917 11.0417V3.4375L14.1667 4.64583V11.875C13.3333 12.3646 12.6042 13.0313 12.0833 13.8333V4.65625L7.91667 3.19792V15.3438L11.0937 16.4583L11.0417 17.2917C11.0417 17.7708 11.0937 18.25 11.1979 18.6979L6.875 17.1875L1.3125 19.3438L1.14583 19.375C1.0077 19.375 0.875224 19.3201 0.777549 19.2225C0.679873 19.1248 0.625 18.9923 0.625 18.8542V3.10417C0.625 2.86458 0.78125 2.67708 1 2.60417L6.875 0.625L13.125 2.8125L18.6875 0.65625L18.8542 0.625ZM2.70833 4.22917V16.5729L5.83333 15.3646V3.17708L2.70833 4.22917Z" fill="white"/>
</svg>
